<?xml version="1.0" standalone="no"?>
<!DOCTYPE svg PUBLIC "-//W3C//DTD SVG 20010904//EN"
 "http://www.w3.org/TR/2001/REC-SVG-20010904/DTD/svg10.dtd">
<svg version="1.0" xmlns="http://www.w3.org/2000/svg"
 width="260.000000pt" height="260.000000pt" viewBox="0 0 260.000000 260.000000"
 preserveAspectRatio="xMidYMid meet">
<metadata>
Created by potrace 1.11, written by Peter Selinger 2001-2013
</metadata>
<g transform="translate(0.000000,260.000000) scale(0.100000,-0.100000)"
fill="#000000" stroke="none">
<path d="M0 1300 l0 -1300 1300 0 1300 0 0 1300 0 1300 -1300 0 -1300 0 0
-1300z m1480 740 c30 -6 64 -15 75 -21 11 -5 46 -18 79 -29 32 -11 80 -33 107
-50 27 -16 52 -30 55 -30 24 0 215 -186 251 -244 14 -22 29 -43 33 -46 23 -16
100 -204 115 -280 8 -47 20 -101 25 -121 13 -46 13 -193 1 -233 -6 -17 -17
-69 -26 -115 -17 -87 -88 -248 -145 -327 -32 -44 -159 -174 -212 -215 -18 -15
-53 -36 -78 -49 -25 -12 -52 -28 -60 -35 -24 -19 -189 -73 -260 -84 -116 -19
-315 -9 -375 19 -11 5 -53 19 -92 31 -40 12 -87 32 -105 45 -17 13 -36 24 -41
24 -17 0 -141 98 -193 152 -60 62 -134 157 -134 170 0 5 -11 26 -25 46 -14 20
-34 66 -46 102 -11 36 -27 79 -34 95 -32 71 -44 271 -24 409 9 71 77 274 99
301 6 7 21 33 35 59 14 26 36 59 50 74 14 15 25 29 25 33 0 20 178 172 240
204 18 10 39 23 46 30 7 6 45 22 86 35 40 12 78 27 84 31 7 5 52 16 100 24 97
16 253 13 344 -5z"/>
<path d="M1175 1611 c-49 -14 -155 -70 -187 -99 -70 -65 -120 -128 -137 -173
-7 -19 -19 -48 -28 -65 -35 -73 -35 -270 1 -340 8 -16 20 -43 26 -61 34 -92
173 -220 270 -248 30 -9 63 -21 72 -26 22 -12 201 -12 214 0 5 5 36 17 69 27
33 10 69 29 81 41 12 13 25 23 30 23 14 0 105 102 136 153 56 90 79 245 55
368 -24 119 -57 181 -143 266 -43 42 -87 73 -141 99 -73 35 -85 38 -183 40
-58 2 -118 -1 -135 -5z"/>
</g>
</svg>
